<?xml version="1.0" encoding="UTF-8" standalone="no"?>
<!-- Created with Inkscape (http://www.inkscape.org/) -->

<svg
   xmlns:dc="http://purl.org/dc/elements/1.1/"
   xmlns:cc="http://creativecommons.org/ns#"
   xmlns:rdf="http://www.w3.org/1999/02/22-rdf-syntax-ns#"
   xmlns:svg="http://www.w3.org/2000/svg"
   xmlns="http://www.w3.org/2000/svg"
   xmlns:sodipodi="http://sodipodi.sourceforge.net/DTD/sodipodi-0.dtd"
   xmlns:inkscape="http://www.inkscape.org/namespaces/inkscape"
   id="svg2"
   version="1.1"
   inkscape:version="0.48.4 r9939"
   width="944"
   height="894"
   sodipodi:docname="thumbtack.png">
  <metadata
     id="metadata8">
    <rdf:RDF>
      <cc:Work
         rdf:about="">
        <dc:format>image/svg+xml</dc:format>
        <dc:type
           rdf:resource="http://purl.org/dc/dcmitype/StillImage" />
        <dc:title></dc:title>
      </cc:Work>
    </rdf:RDF>
  </metadata>
  <defs
     id="defs6" />
  <sodipodi:namedview
     pagecolor="#ffffff"
     bordercolor="#666666"
     borderopacity="1"
     objecttolerance="10"
     gridtolerance="10"
     guidetolerance="10"
     inkscape:pageopacity="0"
     inkscape:pageshadow="2"
     inkscape:window-width="1594"
     inkscape:window-height="894"
     id="namedview4"
     showgrid="false"
     showguides="true"
     inkscape:guide-bbox="true"
     inkscape:snap-global="true"
     inkscape:snap-object-midpoints="true"
     inkscape:zoom="1"
     inkscape:cx="323.55175"
     inkscape:cy="480.05926"
     inkscape:window-x="0"
     inkscape:window-y="0"
     inkscape:window-maximized="0"
     inkscape:current-layer="svg2" />
  <path
     id="path3782"
     d="m 483.15542,422.39612 c 0,6.28727 -5.09684,11.38412 -11.38412,11.38412 -6.28727,0 -11.38412,-5.09685 -11.38412,-11.38412 0,-6.28728 5.09685,-11.38412 11.38412,-11.38412 6.28728,0 11.38412,5.09684 11.38412,11.38412 z"
     style="fill:none;stroke:#f57900;stroke-width:1.04615389999999997"
     transform="matrix(0.95588235,0,0,0.95588235,20.98086,18.807018)" />
  <path
     style="fill:none;stroke:#000000;stroke-width:1.04615389999999997"
     d="M 471.9375 411.6875 C 465.92761 411.6875 461.0625 416.5526 461.0625 422.5625 C 461.0625 430.70321 471.9375 436.35038 471.9375 450.4375 C 471.9375 436.35038 482.8125 430.70321 482.8125 422.5625 C 482.8125 416.5526 477.94739 411.6875 471.9375 411.6875 z "
     id="path2989" />
  <path
     style="fill:none;stroke:#f57900;stroke-width:1"
     d="m 479.50598,422.56801 c 0,4.17928 -3.38798,7.56726 -7.56726,7.56726 -4.17928,0 -7.56726,-3.38798 -7.56726,-7.56726 0,-4.17928 3.38798,-7.56726 7.56726,-7.56726 4.17928,0 7.56726,3.38798 7.56726,7.56726 z"
     id="path3803"
     inkscape:connector-curvature="0" />
  <path
     inkscape:connector-curvature="0"
     style="fill:#000000;stroke:#000000;stroke-width:1.0461539"
     d="m 515.54158,396.15572 c -9.01484,0 -16.3125,7.29765 -16.3125,16.3125 0,12.21107 16.3125,20.68182 16.3125,41.8125 0,-21.13068 16.3125,-29.60143 16.3125,-41.8125 0,-9.01485 -7.29766,-16.3125 -16.3125,-16.3125 z"
     id="path2989-2" />
  <path
     style="fill:#ffffff;stroke:none"
     d="m 530.09055,412.47649 c 0,8.03415 -6.51299,14.54713 -14.54714,14.54713 -8.03415,0 -14.54713,-6.51298 -14.54713,-14.54713 0,-8.03415 6.51298,-14.54714 14.54713,-14.54714 8.03415,0 14.54714,6.51299 14.54714,14.54714 z"
     id="path3803-1"
     inkscape:connector-curvature="0" />
  <path
     style="fill:#000000"
     d="m 520.36165,404.34624 c -0.48272,0.01 -1.03567,0.056 -1.69094,0.1282 -2.69907,0.301 -3.43312,0.4754 -3.43312,0.837 0,0.5334 -2.47374,1.1597 -3.91137,0.9906 -1.72757,-0.203 -2.90408,0.096 -4.35548,1.1016 -1.3287,0.9209 -2.66103,3.1528 -2.66451,4.475 -0.005,1.3705 -0.49243,4.0262 -0.98212,5.295 -0.37172,0.9632 -0.3768,1.0387 0,0.7259 0.23069,-0.1915 0.49941,-0.8009 0.59782,-1.3493 0.0984,-0.5486 0.29729,-1.1837 0.43555,-1.4091 0.28826,-0.4701 0.11257,3.8606 -0.19643,4.8507 -0.17303,0.5544 -0.10034,0.6149 0.73444,0.6149 0.9186,0 0.92581,-0.01 1.24686,-1.6994 0.45051,-2.3707 1.4058,-3.0096 2.64744,-1.7679 0.38739,0.3874 0.70922,1.1354 0.8284,1.9301 0.21509,1.4342 0.4497,1.6128 1.93005,1.486 l 1.00774,-0.085 -0.57218,-0.6576 c -0.68036,-0.7806 -1.21358,-2.5959 -1.00774,-3.4161 0.10592,-0.4219 0.6867,-0.7905 2.10087,-1.3406 1.07522,-0.4185 1.97012,-0.7201 1.9984,-0.6748 0.0282,0.045 0.27502,0.4254 0.53802,0.8455 0.263,0.42 0.53958,1.404 0.61488,2.1862 0.32,3.3245 0.27216,3.2358 1.54576,3.1429 0.85987,-0.063 1.214,-0.2295 1.44329,-0.6919 0.16718,-0.3371 0.51038,-0.8428 0.76007,-1.1187 0.63024,-0.6964 0.55148,-1.637 -0.23912,-2.9207 -1.17417,-1.9063 -0.80646,-4.2359 0.66612,-4.2359 0.42536,0 1.07682,-0.2345 1.45183,-0.5295 1.30615,-1.0274 2.05292,0.4539 2.18627,4.3555 0.0727,2.1266 0.0358,2.3179 -0.4441,2.3228 -0.65586,0.01 -0.87557,0.5592 -0.30743,0.7773 0.51276,0.1967 1.64992,-0.2024 1.94714,-0.6833 0.22835,-0.3694 0.70227,-4.5873 0.70883,-6.3112 0.003,-0.8737 0.0917,-1.0248 0.60634,-1.0248 0.33203,0 0.84408,-0.1821 1.13585,-0.4099 0.5057,-0.3947 0.49574,-0.4041 -0.19643,-0.2477 -1.05158,0.2376 -1.61669,-0.1849 -2.67305,-1.9813 -1.63492,-2.7803 -2.36612,-3.5332 -4.45795,-3.51 z m -2.00692,12.7848 c 0.0502,0 0.12638,0.049 0.22204,0.1451 0.25506,0.255 0.25506,0.4025 0,0.6575 -0.25506,0.255 -0.33306,0.1771 -0.33306,-0.333 0,-0.3188 0.0274,-0.4658 0.11102,-0.4696 z"
     id="path3174"
     inkscape:connector-curvature="0" />
</svg>
