<svg xmlns="http://www.w3.org/2000/svg" version="1.1">
<polygon fill="black" points="-40,-40 -40,40 40,40 40,-40"/>
<polygon fill="white" points="26.7230413808,0.0 29.5442325904,5.20944533001 24.5176771679,8.92370470245 25.9807621135,15.0 20.0450404598,16.8197860568 19.2836282906,22.9813332936 13.3011256331,23.0382253944 10.2606042998,28.1907786236 4.54772563034,25.791433688 1.83697019872e-15,30.0 -4.493067657,25.4814529174 -10.2606042998,28.1907786236 -13.3333621292,23.0940606436 -19.2836282906,22.9813332936 -19.4832002128,16.3483461127 -25.9807621135,15.0 -23.8190120962,8.66941141265 -29.5442325904,5.20944533001 -25.5897409691,3.13383943689e-15 -29.5442325904,-5.20944533001 -24.3868193165,-8.87607633964 -25.9807621135,-15.0 -19.7116155371,-16.5400093271 -19.2836282906,-22.9813332936 -13.1125230133,-22.7115560745 -10.2606042998,-28.1907786236 -4.66267225893,-26.4433284129 -5.51091059616e-15,-30.0 4.40443836477,-24.9788112237 10.2606042998,-28.1907786236 12.9181148902,-22.3748313278 19.2836282906,-22.9813332936 19.417451612,-16.2931764861 25.9807621135,-15.0 25.2546213969,-9.19193046615 29.5442325904,-5.20944533001"/>
</svg>
