<?xml version="1.0" encoding="UTF-8" standalone="no"?>
<!-- Created with Inkscape (http://www.inkscape.org/) -->

<svg
   xmlns:dc="http://purl.org/dc/elements/1.1/"
   xmlns:cc="http://creativecommons.org/ns#"
   xmlns:rdf="http://www.w3.org/1999/02/22-rdf-syntax-ns#"
   xmlns:svg="http://www.w3.org/2000/svg"
   xmlns="http://www.w3.org/2000/svg"
   xmlns:sodipodi="http://sodipodi.sourceforge.net/DTD/sodipodi-0.dtd"
   xmlns:inkscape="http://www.inkscape.org/namespaces/inkscape"
   width="744.09448819"
   height="1052.3622047"
   id="svg2"
   version="1.1"
   inkscape:version="0.48.4 r9939"
   sodipodi:docname="community-symbols.svg">
  <defs
     id="defs4">
    <inkscape:perspective
       sodipodi:type="inkscape:persp3d"
       inkscape:vp_x="4.2426406 : 536.08058 : 1"
       inkscape:vp_y="0 : 1000 : 0"
       inkscape:vp_z="748.33712 : 536.08058 : 1"
       inkscape:persp3d-origin="376.28988 : 360.68688 : 1"
       id="perspective5578" />
  </defs>
  <sodipodi:namedview
     id="base"
     pagecolor="#ffffff"
     bordercolor="#666666"
     borderopacity="1.0"
     inkscape:pageopacity="0.0"
     inkscape:pageshadow="2"
     inkscape:zoom="1.0132904"
     inkscape:cx="533.91395"
     inkscape:cy="926.89144"
     inkscape:document-units="px"
     inkscape:current-layer="layer1"
     showgrid="false"
     showguides="false"
     inkscape:guide-bbox="true"
     inkscape:window-width="1680"
     inkscape:window-height="1050"
     inkscape:window-x="0"
     inkscape:window-y="0"
     inkscape:window-maximized="0">
    <sodipodi:guide
       orientation="1,0"
       position="121.97592,1.5152288"
       id="guide5479" />
    <sodipodi:guide
       orientation="0,1"
       position="193.19167,-52.527932"
       id="guide5481" />
    <sodipodi:guide
       orientation="0,1"
       position="205.56604,-70.584409"
       id="guide5483" />
  </sodipodi:namedview>
  <metadata
     id="metadata7">
    <rdf:RDF>
      <cc:Work
         rdf:about="">
        <dc:format>image/svg+xml</dc:format>
        <dc:type
           rdf:resource="http://purl.org/dc/dcmitype/StillImage" />
        <dc:title></dc:title>
      </cc:Work>
    </rdf:RDF>
  </metadata>
  <g
     inkscape:groupmode="layer"
     id="layer2"
     inkscape:label="Background"
     style="opacity:1" />
  <g
     inkscape:label="Layer 1"
     inkscape:groupmode="layer"
     id="layer1">
    <polygon
       transform="translate(216.67053,408.27469)"
       points="-40,40 40,40 40,-40 -40,-40 "
       id="polygon6-5-1"
       style="fill:#000000"
       inkscape:export-filename="/home/kale/kxgames/seacow/armed-cat/images/empty-health.png"
       inkscape:export-xdpi="90"
       inkscape:export-ydpi="90" />
    <path
       style="color:#000000;fill:#000000;stroke:#ffffff;stroke-width:1;stroke-opacity:1;marker:none;visibility:visible;display:inline;overflow:visible;enable-background:new"
       d="m 194.17053,408.26186 c 0,-12.38846 10.0706,-22.46875 22.5,-22.46875 12.4293,0 22.5,10.08029 22.5,22.46875 l -3,0 c 0,-10.80751 -8.7334,-19.5 -19.5,-19.5 -10.7667,0 -19.5,8.69249 -19.5,19.5 l -3,0 z"
       id="rect10141-0-2-1-1-2"
       inkscape:connector-curvature="0"
       inkscape:export-filename="/home/kale/kxgames/seacow/armed-cat/images/empty-health.png"
       inkscape:export-xdpi="90"
       inkscape:export-ydpi="90" />
    <polygon
       transform="translate(87.558978,71.504543)"
       points="40,40 40,-40 -40,-40 -40,40 "
       id="polygon6-5-1-5"
       style="fill:#000000"
       inkscape:export-filename="/home/kale/kxgames/seacow/armed-cat/images/normal-shape.png"
       inkscape:export-xdpi="90"
       inkscape:export-ydpi="90" />
    <path
       sodipodi:type="arc"
       style="color:#000000;fill:#ffffff;fill-opacity:1;fill-rule:nonzero;stroke:none;stroke-width:1;marker:none;visibility:visible;display:inline;overflow:visible;enable-background:new"
       id="path4113-0-5-0-0-0-4-82-2-40-0-5-3-1"
       sodipodi:cx="-367.19046"
       sodipodi:cy="284.64624"
       sodipodi:rx="29.7995"
       sodipodi:ry="30.304577"
       d="m -337.39096,284.64624 a 29.7995,30.304577 0 1 1 -59.599,0 29.7995,30.304577 0 1 1 59.599,0 z"
       transform="matrix(0.90605549,0,0,0.89095455,420.25391,-182.10232)"
       inkscape:export-filename="/home/kale/kxgames/seacow/armed-cat/images/normal-shape.png"
       inkscape:export-xdpi="90"
       inkscape:export-ydpi="90" />
    <polygon
       transform="translate(215.87864,297.65738)"
       points="40,-40 -40,-40 -40,40 40,40 "
       id="polygon6-5-1-5-7"
       style="fill:#000000"
       inkscape:export-filename="/home/kale/kxgames/seacow/armed-cat/images/army-icon.png"
       inkscape:export-xdpi="90"
       inkscape:export-ydpi="90" />
    <g
       id="g5180-2-6-9-7-6-6-6"
       transform="matrix(0.79753636,0,0,0.79753636,498.91514,-79.201141)"
       style="fill:#ffffff"
       inkscape:export-filename="/home/kale/kxgames/seacow/armed-cat/images/army-icon.png"
       inkscape:export-xdpi="90"
       inkscape:export-ydpi="90">
      <path
         inkscape:connector-curvature="0"
         id="rect5023-5-0-3-5-7-4-3-0"
         d="m -367.16518,487.10714 c -2.216,0 -4,1.784 -4,4 0,2.216 1.784,4 4,4 l 20,0 c 2.216,0 4,-1.784 4,-4 0,-2.216 -1.784,-4 -4,-4 l -20,0 z m 0.15625,2 c 1.10457,0 2,0.89543 2,2 0,1.10457 -0.89543,2 -2,2 -1.10457,0 -2,-0.89543 -2,-2 0,-1.10457 0.89543,-2 2,-2 z m 6.5625,0 c 1.10457,0 2,0.89543 2,2 0,1.10457 -0.89543,2 -2,2 -1.10457,0 -2,-0.89543 -2,-2 0,-1.10457 0.89543,-2 2,-2 z m 6.59375,0 c 1.10457,0 2,0.89543 2,2 0,1.10457 -0.89543,2 -2,2 -1.10457,0 -2,-0.89543 -2,-2 0,-1.10457 0.89543,-2 2,-2 z m 6.5625,0 c 1.10457,0 2,0.89543 2,2 0,1.10457 -0.89543,2 -2,2 -1.10457,0 -2,-0.89543 -2,-2 0,-1.10457 0.89543,-2 2,-2 z"
         style="color:#000000;fill:#ffffff;fill-opacity:1;fill-rule:nonzero;stroke:none;stroke-width:3;marker:none;visibility:visible;display:inline;overflow:visible;enable-background:new" />
      <path
         inkscape:connector-curvature="0"
         id="path5166-5-2-9-8-0-4-2"
         d="m -373.69643,480.66964 0,8 1.59375,0 c 0.90303,-1.81212 2.7881,-3.0625 4.9375,-3.0625 l 20,0 c 2.1494,0 4.03447,1.25038 4.9375,3.0625 l 2.53125,0 0,-2.96875 -7.21875,-5.03125 -26.78125,0 z"
         style="color:#000000;fill:#ffffff;fill-opacity:1;fill-rule:nonzero;stroke:none;stroke-width:3;marker:none;visibility:visible;display:inline;overflow:visible;enable-background:new" />
      <path
         sodipodi:nodetypes="czcccc"
         inkscape:connector-curvature="0"
         id="rect5082-6-8-5-3-9-9-8-6"
         d="m -365.73684,475.76964 c 0,0 0.36337,-2.6 8.5,-2.6 8.13663,0 8.5,2.6 8.5,2.6 l 0,3.4 -17,0 z"
         style="color:#000000;fill:#ffffff;fill-opacity:1;fill-rule:nonzero;stroke:none;stroke-width:3;marker:none;visibility:visible;display:inline;overflow:visible;enable-background:new" />
      <path
         inkscape:connector-curvature="0"
         id="rect5085-8-1-4-4-5-9-4-2"
         d="m -340.08059,475.16469 0,1 -7.15625,0 0,2 7.15625,0 0,1 4,0 0,-4 -4,0 z"
         style="color:#000000;fill:#ffffff;fill-opacity:1;fill-rule:nonzero;stroke:none;stroke-width:3;marker:none;visibility:visible;display:inline;overflow:visible;enable-background:new" />
    </g>
    <polygon
       transform="translate(93.549168,297.96604)"
       points="40,40 40,-40 -40,-40 -40,40 "
       id="polygon6-3-8"
       style="fill:#000000;fill-opacity:1"
       inkscape:export-filename="/home/kale/kxgames/seacow/armed-cat/images/city-icon.png"
       inkscape:export-xdpi="90"
       inkscape:export-ydpi="90" />
    <path
       id="path9660-9-5-0-1-0"
       style="color:#000000;fill:#ffffff;fill-opacity:1;fill-rule:nonzero;stroke:none;stroke-width:1;marker:none;visibility:visible;display:inline;overflow:visible;enable-background:new"
       d="m 89.503468,297.52257 -10.9543,7.674 0.9045,1.3021 10.0498,-7.0377 8.3598,5.8548 0.8648,0.6064 1.2227,0 8.598402,0 0,-1.5905 -9.324102,0 -3.3598,-2.3558 0,-3.7277 -2.2267,0 0,2.167 -4.1351,-2.8926 z m 0.01,3.0434 -9.2943,6.5009 0,7.3161 -1.1531,0 0,1.5905 8.4096,0 0,-7.3161 4.0557,0 0,7.3161 16.878702,0 0,-1.5905 -1.1531,0 0,-7.3161 -8.459202,0 -9.2843,-6.5009 z m -0.01,4.1749 c 1.1199,0 2.0278,0.9079 2.0278,2.0279 l -4.0557,0 c 0,-1.12 0.9079,-2.0279 2.0279,-2.0279 z m -6.6601,3.9165 2.8628,0 0,3.499 -2.8628,0 0,-3.499 z m 10.4772,0 2.8628,0 0,3.499 -2.8628,0 0,-3.499 z m 4.662,0 2.862802,0 0,3.499 -2.862802,0 0,-3.499 z m 4.671902,0 2.8629,0 0,3.499 -2.8629,0 0,-3.499 z"
       inkscape:connector-curvature="0"
       inkscape:export-filename="/home/kale/kxgames/seacow/armed-cat/images/city-icon.png"
       inkscape:export-xdpi="90"
       inkscape:export-ydpi="90" />
    <polygon
       transform="translate(89.562879,409.95868)"
       points="40,-40 -40,-40 -40,40 40,40 "
       id="polygon6-5-1-3"
       style="fill:#000000"
       inkscape:export-filename="/home/kale/kxgames/seacow/armed-cat/images/full-health.png"
       inkscape:export-xdpi="90"
       inkscape:export-ydpi="90" />
    <path
       style="color:#000000;fill:#ffffff;stroke:#ffffff;stroke-width:1;stroke-opacity:1;marker:none;visibility:visible;display:inline;overflow:visible;enable-background:new"
       d="m 67.062879,409.94585 c 0,-12.38846 10.0706,-22.46875 22.5,-22.46875 12.429301,0 22.500001,10.08029 22.500001,22.46875 l -3,0 c 0,-10.80751 -8.7334,-19.5 -19.500001,-19.5 -10.7667,0 -19.5,8.69249 -19.5,19.5 l -3,0 z"
       id="rect10141-0-2-1-1-2-7"
       inkscape:connector-curvature="0"
       inkscape:export-filename="/home/kale/kxgames/seacow/armed-cat/images/full-health.png"
       inkscape:export-xdpi="90"
       inkscape:export-ydpi="90" />
    <g
       id="g5416"
       transform="translate(-300.52037,-140.71425)">
      <polygon
         inkscape:export-ydpi="90"
         inkscape:export-xdpi="90"
         inkscape:export-filename="/home/kale/kxgames/seacow/armed-cat/images/empty-health.png"
         style="fill:#000000"
         id="polygon6-5-1-54"
         points="-40,-40 -40,40 40,40 40,-40 "
         transform="translate(395.27268,321.21379)" />
      <g
         style="fill:#ffffff;fill-opacity:1"
         transform="translate(395.27268,321.21379)"
         id="g3854">
        <circle
           style="fill:#ffffff;fill-opacity:1"
           d="m 33.5,0 c 0,0.82842712 -0.671573,1.5 -1.5,1.5 -0.828427,0 -1.5,-0.67157288 -1.5,-1.5 0,-0.82842712 0.671573,-1.5 1.5,-1.5 0.828427,0 1.5,0.67157288 1.5,1.5 z"
           sodipodi:ry="1.5"
           sodipodi:rx="1.5"
           sodipodi:cy="0"
           sodipodi:cx="32"
           cx="32"
           cy="0"
           r="1.5"
           id="circle3776" />
        <circle
           style="fill:#ffffff;fill-opacity:1"
           d="m 33.013847,5.5567422 c 0,0.8284271 -0.671573,1.5 -1.5,1.5 -0.828427,0 -1.5,-0.6715729 -1.5,-1.5 0,-0.8284271 0.671573,-1.5 1.5,-1.5 0.828427,0 1.5,0.6715729 1.5,1.5 z"
           sodipodi:ry="1.5"
           sodipodi:rx="1.5"
           sodipodi:cy="5.5567422"
           sodipodi:cx="31.513847"
           cx="31.513847"
           cy="5.5567422"
           r="1.5"
           id="circle3778" />
        <circle
           style="fill:#ffffff;fill-opacity:1"
           d="m 31.570164,10.944645 c 0,0.828427 -0.671573,1.5 -1.5,1.5 -0.828427,0 -1.5,-0.671573 -1.5,-1.5 0,-0.828427 0.671573,-1.5000001 1.5,-1.5000001 0.828427,0 1.5,0.6715731 1.5,1.5000001 z"
           sodipodi:ry="1.5"
           sodipodi:rx="1.5"
           sodipodi:cy="10.944645"
           sodipodi:cx="30.070164"
           cx="30.070164"
           cy="10.944645"
           r="1.5"
           id="circle3780" />
        <circle
           style="fill:#ffffff;fill-opacity:1"
           d="m 29.212812,16 c 0,0.828427 -0.671572,1.5 -1.5,1.5 -0.828427,0 -1.5,-0.671573 -1.5,-1.5 0,-0.828427 0.671573,-1.5 1.5,-1.5 0.828428,0 1.5,0.671573 1.5,1.5 z"
           sodipodi:ry="1.5"
           sodipodi:rx="1.5"
           sodipodi:cy="16"
           sodipodi:cx="27.712812"
           cx="27.712812"
           cy="16"
           r="1.5"
           id="circle3782" />
        <circle
           style="fill:#ffffff;fill-opacity:1"
           d="m 26.013422,20.569204 c 0,0.828427 -0.671573,1.5 -1.5,1.5 -0.828427,0 -1.5,-0.671573 -1.5,-1.5 0,-0.828427 0.671573,-1.5 1.5,-1.5 0.828427,0 1.5,0.671573 1.5,1.5 z"
           sodipodi:ry="1.5"
           sodipodi:rx="1.5"
           sodipodi:cy="20.569204"
           sodipodi:cx="24.513422"
           cx="24.513422"
           cy="20.569204"
           r="1.5"
           id="circle3784" />
        <circle
           style="fill:#ffffff;fill-opacity:1"
           d="m 22.069204,24.513422 c 0,0.828427 -0.671573,1.5 -1.5,1.5 -0.828427,0 -1.5,-0.671573 -1.5,-1.5 0,-0.828427 0.671573,-1.5 1.5,-1.5 0.828427,0 1.5,0.671573 1.5,1.5 z"
           sodipodi:ry="1.5"
           sodipodi:rx="1.5"
           sodipodi:cy="24.513422"
           sodipodi:cx="20.569204"
           cx="20.569204"
           cy="24.513422"
           r="1.5"
           id="circle3786" />
        <circle
           style="fill:#ffffff;fill-opacity:1"
           d="m 17.5,27.712812 c 0,0.828428 -0.671573,1.5 -1.5,1.5 -0.828427,0 -1.5,-0.671572 -1.5,-1.5 0,-0.828427 0.671573,-1.5 1.5,-1.5 0.828427,0 1.5,0.671573 1.5,1.5 z"
           sodipodi:ry="1.5"
           sodipodi:rx="1.5"
           sodipodi:cy="27.712812"
           sodipodi:cx="16"
           cx="16"
           cy="27.712812"
           r="1.5"
           id="circle3788" />
        <circle
           style="fill:#ffffff;fill-opacity:1"
           d="m 12.444645,30.070164 c 0,0.828427 -0.671573,1.5 -1.5,1.5 -0.828427,0 -1.5000001,-0.671573 -1.5000001,-1.5 0,-0.828427 0.6715731,-1.5 1.5000001,-1.5 0.828427,0 1.5,0.671573 1.5,1.5 z"
           sodipodi:ry="1.5"
           sodipodi:rx="1.5"
           sodipodi:cy="30.070164"
           sodipodi:cx="10.944645"
           cx="10.944645"
           cy="30.070164"
           r="1.5"
           id="circle3790" />
        <circle
           style="fill:#ffffff;fill-opacity:1"
           d="m 7.0567422,31.513847 c 0,0.828427 -0.6715729,1.5 -1.5,1.5 -0.8284271,0 -1.5,-0.671573 -1.5,-1.5 0,-0.828427 0.6715729,-1.5 1.5,-1.5 0.8284271,0 1.5,0.671573 1.5,1.5 z"
           sodipodi:ry="1.5"
           sodipodi:rx="1.5"
           sodipodi:cy="31.513847"
           sodipodi:cx="5.5567422"
           cx="5.5567422"
           cy="31.513847"
           r="1.5"
           id="circle3792" />
        <circle
           style="fill:#ffffff;fill-opacity:1"
           d="m 1.5,32 c 0,0.828427 -0.67157288,1.5 -1.5,1.5 -0.82842712,0 -1.5,-0.671573 -1.5,-1.5 0,-0.828427 0.67157288,-1.5 1.5,-1.5 0.82842712,0 1.5,0.671573 1.5,1.5 z"
           sodipodi:ry="1.5"
           sodipodi:rx="1.5"
           sodipodi:cy="32"
           sodipodi:cx="0"
           cx="0"
           cy="32"
           r="1.5"
           id="circle3794" />
        <circle
           style="fill:#ffffff;fill-opacity:1"
           d="m -4.0567422,31.513847 c 0,0.828427 -0.6715729,1.5 -1.5,1.5 -0.8284271,0 -1.5,-0.671573 -1.5,-1.5 0,-0.828427 0.6715729,-1.5 1.5,-1.5 0.8284271,0 1.5,0.671573 1.5,1.5 z"
           sodipodi:ry="1.5"
           sodipodi:rx="1.5"
           sodipodi:cy="31.513847"
           sodipodi:cx="-5.5567422"
           cx="-5.5567422"
           cy="31.513847"
           r="1.5"
           id="circle3796" />
        <circle
           style="fill:#ffffff;fill-opacity:1"
           d="m -9.4446449,30.070164 c 0,0.828427 -0.6715731,1.5 -1.5000001,1.5 -0.828427,0 -1.5,-0.671573 -1.5,-1.5 0,-0.828427 0.671573,-1.5 1.5,-1.5 0.828427,0 1.5000001,0.671573 1.5000001,1.5 z"
           sodipodi:ry="1.5"
           sodipodi:rx="1.5"
           sodipodi:cy="30.070164"
           sodipodi:cx="-10.944645"
           cx="-10.944645"
           cy="30.070164"
           r="1.5"
           id="circle3798" />
        <circle
           style="fill:#ffffff;fill-opacity:1"
           d="m -14.5,27.712812 c 0,0.828428 -0.671573,1.5 -1.5,1.5 -0.828427,0 -1.5,-0.671572 -1.5,-1.5 0,-0.828427 0.671573,-1.5 1.5,-1.5 0.828427,0 1.5,0.671573 1.5,1.5 z"
           sodipodi:ry="1.5"
           sodipodi:rx="1.5"
           sodipodi:cy="27.712812"
           sodipodi:cx="-16"
           cx="-16"
           cy="27.712812"
           r="1.5"
           id="circle3800" />
        <circle
           style="fill:#ffffff;fill-opacity:1"
           d="m -19.069204,24.513422 c 0,0.828427 -0.671573,1.5 -1.5,1.5 -0.828427,0 -1.5,-0.671573 -1.5,-1.5 0,-0.828427 0.671573,-1.5 1.5,-1.5 0.828427,0 1.5,0.671573 1.5,1.5 z"
           sodipodi:ry="1.5"
           sodipodi:rx="1.5"
           sodipodi:cy="24.513422"
           sodipodi:cx="-20.569204"
           cx="-20.569204"
           cy="24.513422"
           r="1.5"
           id="circle3802" />
        <circle
           style="fill:#ffffff;fill-opacity:1"
           d="m -23.013422,20.569204 c 0,0.828427 -0.671573,1.5 -1.5,1.5 -0.828427,0 -1.5,-0.671573 -1.5,-1.5 0,-0.828427 0.671573,-1.5 1.5,-1.5 0.828427,0 1.5,0.671573 1.5,1.5 z"
           sodipodi:ry="1.5"
           sodipodi:rx="1.5"
           sodipodi:cy="20.569204"
           sodipodi:cx="-24.513422"
           cx="-24.513422"
           cy="20.569204"
           r="1.5"
           id="circle3804" />
        <circle
           style="fill:#ffffff;fill-opacity:1"
           d="m -26.212812,16 c 0,0.828427 -0.671573,1.5 -1.5,1.5 -0.828428,0 -1.5,-0.671573 -1.5,-1.5 0,-0.828427 0.671572,-1.5 1.5,-1.5 0.828427,0 1.5,0.671573 1.5,1.5 z"
           sodipodi:ry="1.5"
           sodipodi:rx="1.5"
           sodipodi:cy="16"
           sodipodi:cx="-27.712812"
           cx="-27.712812"
           cy="16"
           r="1.5"
           id="circle3806" />
        <circle
           style="fill:#ffffff;fill-opacity:1"
           d="m -28.570164,10.944645 c 0,0.828427 -0.671573,1.5 -1.5,1.5 -0.828427,0 -1.5,-0.671573 -1.5,-1.5 0,-0.828427 0.671573,-1.5000001 1.5,-1.5000001 0.828427,0 1.5,0.6715731 1.5,1.5000001 z"
           sodipodi:ry="1.5"
           sodipodi:rx="1.5"
           sodipodi:cy="10.944645"
           sodipodi:cx="-30.070164"
           cx="-30.070164"
           cy="10.944645"
           r="1.5"
           id="circle3808" />
        <circle
           style="fill:#ffffff;fill-opacity:1"
           d="m -30.013847,5.5567422 c 0,0.8284271 -0.671573,1.5 -1.5,1.5 -0.828427,0 -1.5,-0.6715729 -1.5,-1.5 0,-0.8284271 0.671573,-1.5 1.5,-1.5 0.828427,0 1.5,0.6715729 1.5,1.5 z"
           sodipodi:ry="1.5"
           sodipodi:rx="1.5"
           sodipodi:cy="5.5567422"
           sodipodi:cx="-31.513847"
           cx="-31.513847"
           cy="5.5567422"
           r="1.5"
           id="circle3810" />
        <circle
           style="fill:#ffffff;fill-opacity:1"
           d="m -30.5,0 c 0,0.82842712 -0.671573,1.5 -1.5,1.5 -0.828427,0 -1.5,-0.67157288 -1.5,-1.5 0,-0.82842712 0.671573,-1.5 1.5,-1.5 0.828427,0 1.5,0.67157288 1.5,1.5 z"
           sodipodi:ry="1.5"
           sodipodi:rx="1.5"
           sodipodi:cy="0"
           sodipodi:cx="-32"
           cx="-32"
           cy="0"
           r="1.5"
           id="circle3812" />
        <circle
           style="fill:#ffffff;fill-opacity:1"
           d="m -30.013847,-5.5567422 c 0,0.8284271 -0.671573,1.5 -1.5,1.5 -0.828427,0 -1.5,-0.6715729 -1.5,-1.5 0,-0.8284271 0.671573,-1.5 1.5,-1.5 0.828427,0 1.5,0.6715729 1.5,1.5 z"
           sodipodi:ry="1.5"
           sodipodi:rx="1.5"
           sodipodi:cy="-5.5567422"
           sodipodi:cx="-31.513847"
           cx="-31.513847"
           cy="-5.5567422"
           r="1.5"
           id="circle3814" />
        <circle
           style="fill:#ffffff;fill-opacity:1"
           d="m -28.570164,-10.944645 c 0,0.828427 -0.671573,1.5000001 -1.5,1.5000001 -0.828427,0 -1.5,-0.6715731 -1.5,-1.5000001 0,-0.828427 0.671573,-1.5 1.5,-1.5 0.828427,0 1.5,0.671573 1.5,1.5 z"
           sodipodi:ry="1.5"
           sodipodi:rx="1.5"
           sodipodi:cy="-10.944645"
           sodipodi:cx="-30.070164"
           cx="-30.070164"
           cy="-10.944645"
           r="1.5"
           id="circle3816" />
        <circle
           style="fill:#ffffff;fill-opacity:1"
           d="m -26.212812,-16 c 0,0.828427 -0.671573,1.5 -1.5,1.5 -0.828428,0 -1.5,-0.671573 -1.5,-1.5 0,-0.828427 0.671572,-1.5 1.5,-1.5 0.828427,0 1.5,0.671573 1.5,1.5 z"
           sodipodi:ry="1.5"
           sodipodi:rx="1.5"
           sodipodi:cy="-16"
           sodipodi:cx="-27.712812"
           cx="-27.712812"
           cy="-16"
           r="1.5"
           id="circle3818" />
        <circle
           style="fill:#ffffff;fill-opacity:1"
           d="m -23.013422,-20.569204 c 0,0.828427 -0.671573,1.5 -1.5,1.5 -0.828427,0 -1.5,-0.671573 -1.5,-1.5 0,-0.828427 0.671573,-1.5 1.5,-1.5 0.828427,0 1.5,0.671573 1.5,1.5 z"
           sodipodi:ry="1.5"
           sodipodi:rx="1.5"
           sodipodi:cy="-20.569204"
           sodipodi:cx="-24.513422"
           cx="-24.513422"
           cy="-20.569204"
           r="1.5"
           id="circle3820" />
        <circle
           style="fill:#ffffff;fill-opacity:1"
           d="m -19.069204,-24.513422 c 0,0.828427 -0.671573,1.5 -1.5,1.5 -0.828427,0 -1.5,-0.671573 -1.5,-1.5 0,-0.828427 0.671573,-1.5 1.5,-1.5 0.828427,0 1.5,0.671573 1.5,1.5 z"
           sodipodi:ry="1.5"
           sodipodi:rx="1.5"
           sodipodi:cy="-24.513422"
           sodipodi:cx="-20.569204"
           cx="-20.569204"
           cy="-24.513422"
           r="1.5"
           id="circle3822" />
        <circle
           style="fill:#ffffff;fill-opacity:1"
           d="m -14.5,-27.712812 c 0,0.828427 -0.671573,1.5 -1.5,1.5 -0.828427,0 -1.5,-0.671573 -1.5,-1.5 0,-0.828428 0.671573,-1.5 1.5,-1.5 0.828427,0 1.5,0.671572 1.5,1.5 z"
           sodipodi:ry="1.5"
           sodipodi:rx="1.5"
           sodipodi:cy="-27.712812"
           sodipodi:cx="-16"
           cx="-16"
           cy="-27.712812"
           r="1.5"
           id="circle3824" />
        <circle
           style="fill:#ffffff;fill-opacity:1"
           d="m -9.4446449,-30.070164 c 0,0.828427 -0.6715731,1.5 -1.5000001,1.5 -0.828427,0 -1.5,-0.671573 -1.5,-1.5 0,-0.828427 0.671573,-1.5 1.5,-1.5 0.828427,0 1.5000001,0.671573 1.5000001,1.5 z"
           sodipodi:ry="1.5"
           sodipodi:rx="1.5"
           sodipodi:cy="-30.070164"
           sodipodi:cx="-10.944645"
           cx="-10.944645"
           cy="-30.070164"
           r="1.5"
           id="circle3826" />
        <circle
           style="fill:#ffffff;fill-opacity:1"
           d="m -4.0567422,-31.513847 c 0,0.828427 -0.6715729,1.5 -1.5,1.5 -0.8284271,0 -1.5,-0.671573 -1.5,-1.5 0,-0.828427 0.6715729,-1.5 1.5,-1.5 0.8284271,0 1.5,0.671573 1.5,1.5 z"
           sodipodi:ry="1.5"
           sodipodi:rx="1.5"
           sodipodi:cy="-31.513847"
           sodipodi:cx="-5.5567422"
           cx="-5.5567422"
           cy="-31.513847"
           r="1.5"
           id="circle3828" />
        <circle
           style="fill:#ffffff;fill-opacity:1"
           d="m 1.5,-32 c 0,0.828427 -0.67157288,1.5 -1.5,1.5 -0.82842712,0 -1.5,-0.671573 -1.5,-1.5 0,-0.828427 0.67157288,-1.5 1.5,-1.5 0.82842712,0 1.5,0.671573 1.5,1.5 z"
           sodipodi:ry="1.5"
           sodipodi:rx="1.5"
           sodipodi:cy="-32"
           sodipodi:cx="0"
           cx="0"
           cy="-32"
           r="1.5"
           id="circle3830" />
        <circle
           style="fill:#ffffff;fill-opacity:1"
           d="m 7.0567422,-31.513847 c 0,0.828427 -0.6715729,1.5 -1.5,1.5 -0.8284271,0 -1.5,-0.671573 -1.5,-1.5 0,-0.828427 0.6715729,-1.5 1.5,-1.5 0.8284271,0 1.5,0.671573 1.5,1.5 z"
           sodipodi:ry="1.5"
           sodipodi:rx="1.5"
           sodipodi:cy="-31.513847"
           sodipodi:cx="5.5567422"
           cx="5.5567422"
           cy="-31.513847"
           r="1.5"
           id="circle3832" />
        <circle
           style="fill:#ffffff;fill-opacity:1"
           d="m 12.444645,-30.070164 c 0,0.828427 -0.671573,1.5 -1.5,1.5 -0.828427,0 -1.5000001,-0.671573 -1.5000001,-1.5 0,-0.828427 0.6715731,-1.5 1.5000001,-1.5 0.828427,0 1.5,0.671573 1.5,1.5 z"
           sodipodi:ry="1.5"
           sodipodi:rx="1.5"
           sodipodi:cy="-30.070164"
           sodipodi:cx="10.944645"
           cx="10.944645"
           cy="-30.070164"
           r="1.5"
           id="circle3834" />
        <circle
           style="fill:#ffffff;fill-opacity:1"
           d="m 17.5,-27.712812 c 0,0.828427 -0.671573,1.5 -1.5,1.5 -0.828427,0 -1.5,-0.671573 -1.5,-1.5 0,-0.828428 0.671573,-1.5 1.5,-1.5 0.828427,0 1.5,0.671572 1.5,1.5 z"
           sodipodi:ry="1.5"
           sodipodi:rx="1.5"
           sodipodi:cy="-27.712812"
           sodipodi:cx="16"
           cx="16"
           cy="-27.712812"
           r="1.5"
           id="circle3836" />
        <circle
           style="fill:#ffffff;fill-opacity:1"
           d="m 22.069204,-24.513422 c 0,0.828427 -0.671573,1.5 -1.5,1.5 -0.828427,0 -1.5,-0.671573 -1.5,-1.5 0,-0.828427 0.671573,-1.5 1.5,-1.5 0.828427,0 1.5,0.671573 1.5,1.5 z"
           sodipodi:ry="1.5"
           sodipodi:rx="1.5"
           sodipodi:cy="-24.513422"
           sodipodi:cx="20.569204"
           cx="20.569204"
           cy="-24.513422"
           r="1.5"
           id="circle3838" />
        <circle
           style="fill:#ffffff;fill-opacity:1"
           d="m 26.013422,-20.569204 c 0,0.828427 -0.671573,1.5 -1.5,1.5 -0.828427,0 -1.5,-0.671573 -1.5,-1.5 0,-0.828427 0.671573,-1.5 1.5,-1.5 0.828427,0 1.5,0.671573 1.5,1.5 z"
           sodipodi:ry="1.5"
           sodipodi:rx="1.5"
           sodipodi:cy="-20.569204"
           sodipodi:cx="24.513422"
           cx="24.513422"
           cy="-20.569204"
           r="1.5"
           id="circle3840" />
        <circle
           style="fill:#ffffff;fill-opacity:1"
           d="m 29.212812,-16 c 0,0.828427 -0.671572,1.5 -1.5,1.5 -0.828427,0 -1.5,-0.671573 -1.5,-1.5 0,-0.828427 0.671573,-1.5 1.5,-1.5 0.828428,0 1.5,0.671573 1.5,1.5 z"
           sodipodi:ry="1.5"
           sodipodi:rx="1.5"
           sodipodi:cy="-16"
           sodipodi:cx="27.712812"
           cx="27.712812"
           cy="-16"
           r="1.5"
           id="circle3842" />
        <circle
           style="fill:#ffffff;fill-opacity:1"
           d="m 31.570164,-10.944645 c 0,0.828427 -0.671573,1.5000001 -1.5,1.5000001 -0.828427,0 -1.5,-0.6715731 -1.5,-1.5000001 0,-0.828427 0.671573,-1.5 1.5,-1.5 0.828427,0 1.5,0.671573 1.5,1.5 z"
           sodipodi:ry="1.5"
           sodipodi:rx="1.5"
           sodipodi:cy="-10.944645"
           sodipodi:cx="30.070164"
           cx="30.070164"
           cy="-10.944645"
           r="1.5"
           id="circle3844" />
        <circle
           style="fill:#ffffff;fill-opacity:1"
           d="m 33.013847,-5.5567422 c 0,0.8284271 -0.671573,1.5 -1.5,1.5 -0.828427,0 -1.5,-0.6715729 -1.5,-1.5 0,-0.8284271 0.671573,-1.5 1.5,-1.5 0.828427,0 1.5,0.6715729 1.5,1.5 z"
           sodipodi:ry="1.5"
           sodipodi:rx="1.5"
           sodipodi:cy="-5.5567422"
           sodipodi:cx="31.513847"
           cx="31.513847"
           cy="-5.5567422"
           r="1.5"
           id="circle3846" />
      </g>
    </g>
    <g
       id="g5456"
       transform="translate(-302.64169,-134.35028)"
       inkscape:export-filename="/home/kale/kxgames/seacow/armed-cat/images/battle-shape.png"
       inkscape:export-xdpi="441.38"
       inkscape:export-ydpi="441.38">
      <g
         transform="translate(514.06662,210.19803)"
         id="g5372">
        <polygon
           style="fill:#000000"
           points="-40,-40 -40,40 40,40 40,-40 "
           id="polygon5362" />
        <polygon
           style="fill:#ffffff"
           points="20.710964,17.378563 25.166144,29.991843 13.680589,23.695475 11.909287,32.720497 4.5752509,25.947537 2.2282902e-15,36.390741 -4.4665177,25.330881 -12.20762,33.54016 -13.689952,23.711692 -25.392064,30.261084 -19.253126,16.155291 -29.97845,17.308066 -23.657449,8.6106073 -33.740564,5.9493718 -26.281735,3.2185843e-15 -34.482177,-6.0801382 -25.295986,-9.206986 -30.857944,-17.815842 -19.964149,-16.75191 -23.98959,-28.58968 -12.91953,-22.377282 -11.38054,-31.267777 -4.3590631,-24.721476 -6.0623556e-15,-33.001927 4.5242802,-25.658468 12.840352,-35.278577 13.311436,-23.056083 23.296294,-27.763442 19.186615,-16.099481 33.013892,-19.060579 23.636036,-8.6028135 32.034874,-5.6486126 26.121733,0 34.631578,6.1064816 24.341987,8.8597585 31.105164,17.958575 "
           id="polygon5364" />
      </g>
    </g>
    <polygon
       transform="translate(211.42492,181.91376)"
       points="-40,40 40,40 40,-40 -40,-40 "
       id="polygon6-5-1-54-1"
       style="fill:#000000"
       inkscape:export-filename="/home/kale/kxgames/seacow/armed-cat/images/empty-health.png"
       inkscape:export-xdpi="90"
       inkscape:export-ydpi="90" />
    <g
       id="g4663"
       transform="translate(211.42492,181.91376)"
       style="fill:#ffffff;fill-opacity:1">
      <circle
         id="circle4621"
         r="1.5"
         cy="0"
         cx="32"
         sodipodi:cx="32"
         sodipodi:cy="0"
         sodipodi:rx="1.5"
         sodipodi:ry="1.5"
         d="m 33.5,0 c 0,0.82842712 -0.671573,1.5 -1.5,1.5 -0.828427,0 -1.5,-0.67157288 -1.5,-1.5 0,-0.82842712 0.671573,-1.5 1.5,-1.5 0.828427,0 1.5,0.67157288 1.5,1.5 z"
         style="fill:#ffffff;fill-opacity:1" />
      <circle
         id="circle4623"
         r="1.5"
         cy="10.944645"
         cx="30.070164"
         sodipodi:cx="30.070164"
         sodipodi:cy="10.944645"
         sodipodi:rx="1.5"
         sodipodi:ry="1.5"
         d="m 31.570164,10.944645 c 0,0.828427 -0.671573,1.5 -1.5,1.5 -0.828427,0 -1.5,-0.671573 -1.5,-1.5 0,-0.828427 0.671573,-1.5000001 1.5,-1.5000001 0.828427,0 1.5,0.6715731 1.5,1.5000001 z"
         style="fill:#ffffff;fill-opacity:1" />
      <circle
         id="circle4625"
         r="1.5"
         cy="20.569204"
         cx="24.513422"
         sodipodi:cx="24.513422"
         sodipodi:cy="20.569204"
         sodipodi:rx="1.5"
         sodipodi:ry="1.5"
         d="m 26.013422,20.569204 c 0,0.828427 -0.671573,1.5 -1.5,1.5 -0.828427,0 -1.5,-0.671573 -1.5,-1.5 0,-0.828427 0.671573,-1.5 1.5,-1.5 0.828427,0 1.5,0.671573 1.5,1.5 z"
         style="fill:#ffffff;fill-opacity:1" />
      <circle
         id="circle4627"
         r="1.5"
         cy="27.712812"
         cx="16"
         sodipodi:cx="16"
         sodipodi:cy="27.712812"
         sodipodi:rx="1.5"
         sodipodi:ry="1.5"
         d="m 17.5,27.712812 c 0,0.828428 -0.671573,1.5 -1.5,1.5 -0.828427,0 -1.5,-0.671572 -1.5,-1.5 0,-0.828427 0.671573,-1.5 1.5,-1.5 0.828427,0 1.5,0.671573 1.5,1.5 z"
         style="fill:#ffffff;fill-opacity:1" />
      <circle
         id="circle4629"
         r="1.5"
         cy="31.513847"
         cx="5.5567422"
         sodipodi:cx="5.5567422"
         sodipodi:cy="31.513847"
         sodipodi:rx="1.5"
         sodipodi:ry="1.5"
         d="m 7.0567422,31.513847 c 0,0.828427 -0.6715729,1.5 -1.5,1.5 -0.8284271,0 -1.5,-0.671573 -1.5,-1.5 0,-0.828427 0.6715729,-1.5 1.5,-1.5 0.8284271,0 1.5,0.671573 1.5,1.5 z"
         style="fill:#ffffff;fill-opacity:1" />
      <circle
         id="circle4631"
         r="1.5"
         cy="31.513847"
         cx="-5.5567422"
         sodipodi:cx="-5.5567422"
         sodipodi:cy="31.513847"
         sodipodi:rx="1.5"
         sodipodi:ry="1.5"
         d="m -4.0567422,31.513847 c 0,0.828427 -0.6715729,1.5 -1.5,1.5 -0.8284271,0 -1.5,-0.671573 -1.5,-1.5 0,-0.828427 0.6715729,-1.5 1.5,-1.5 0.8284271,0 1.5,0.671573 1.5,1.5 z"
         style="fill:#ffffff;fill-opacity:1" />
      <circle
         id="circle4633"
         r="1.5"
         cy="27.712812"
         cx="-16"
         sodipodi:cx="-16"
         sodipodi:cy="27.712812"
         sodipodi:rx="1.5"
         sodipodi:ry="1.5"
         d="m -14.5,27.712812 c 0,0.828428 -0.671573,1.5 -1.5,1.5 -0.828427,0 -1.5,-0.671572 -1.5,-1.5 0,-0.828427 0.671573,-1.5 1.5,-1.5 0.828427,0 1.5,0.671573 1.5,1.5 z"
         style="fill:#ffffff;fill-opacity:1" />
      <circle
         id="circle4635"
         r="1.5"
         cy="20.569204"
         cx="-24.513422"
         sodipodi:cx="-24.513422"
         sodipodi:cy="20.569204"
         sodipodi:rx="1.5"
         sodipodi:ry="1.5"
         d="m -23.013422,20.569204 c 0,0.828427 -0.671573,1.5 -1.5,1.5 -0.828427,0 -1.5,-0.671573 -1.5,-1.5 0,-0.828427 0.671573,-1.5 1.5,-1.5 0.828427,0 1.5,0.671573 1.5,1.5 z"
         style="fill:#ffffff;fill-opacity:1" />
      <circle
         id="circle4637"
         r="1.5"
         cy="10.944645"
         cx="-30.070164"
         sodipodi:cx="-30.070164"
         sodipodi:cy="10.944645"
         sodipodi:rx="1.5"
         sodipodi:ry="1.5"
         d="m -28.570164,10.944645 c 0,0.828427 -0.671573,1.5 -1.5,1.5 -0.828427,0 -1.5,-0.671573 -1.5,-1.5 0,-0.828427 0.671573,-1.5000001 1.5,-1.5000001 0.828427,0 1.5,0.6715731 1.5,1.5000001 z"
         style="fill:#ffffff;fill-opacity:1" />
      <circle
         id="circle4639"
         r="1.5"
         cy="0"
         cx="-32"
         sodipodi:cx="-32"
         sodipodi:cy="0"
         sodipodi:rx="1.5"
         sodipodi:ry="1.5"
         d="m -30.5,0 c 0,0.82842712 -0.671573,1.5 -1.5,1.5 -0.828427,0 -1.5,-0.67157288 -1.5,-1.5 0,-0.82842712 0.671573,-1.5 1.5,-1.5 0.828427,0 1.5,0.67157288 1.5,1.5 z"
         style="fill:#ffffff;fill-opacity:1" />
      <circle
         id="circle4641"
         r="1.5"
         cy="-10.944645"
         cx="-30.070164"
         sodipodi:cx="-30.070164"
         sodipodi:cy="-10.944645"
         sodipodi:rx="1.5"
         sodipodi:ry="1.5"
         d="m -28.570164,-10.944645 c 0,0.828427 -0.671573,1.5000001 -1.5,1.5000001 -0.828427,0 -1.5,-0.6715731 -1.5,-1.5000001 0,-0.828427 0.671573,-1.5 1.5,-1.5 0.828427,0 1.5,0.671573 1.5,1.5 z"
         style="fill:#ffffff;fill-opacity:1" />
      <circle
         id="circle4643"
         r="1.5"
         cy="-20.569204"
         cx="-24.513422"
         sodipodi:cx="-24.513422"
         sodipodi:cy="-20.569204"
         sodipodi:rx="1.5"
         sodipodi:ry="1.5"
         d="m -23.013422,-20.569204 c 0,0.828427 -0.671573,1.5 -1.5,1.5 -0.828427,0 -1.5,-0.671573 -1.5,-1.5 0,-0.828427 0.671573,-1.5 1.5,-1.5 0.828427,0 1.5,0.671573 1.5,1.5 z"
         style="fill:#ffffff;fill-opacity:1" />
      <circle
         id="circle4645"
         r="1.5"
         cy="-27.712812"
         cx="-16"
         sodipodi:cx="-16"
         sodipodi:cy="-27.712812"
         sodipodi:rx="1.5"
         sodipodi:ry="1.5"
         d="m -14.5,-27.712812 c 0,0.828427 -0.671573,1.5 -1.5,1.5 -0.828427,0 -1.5,-0.671573 -1.5,-1.5 0,-0.828428 0.671573,-1.5 1.5,-1.5 0.828427,0 1.5,0.671572 1.5,1.5 z"
         style="fill:#ffffff;fill-opacity:1" />
      <circle
         id="circle4647"
         r="1.5"
         cy="-31.513847"
         cx="-5.5567422"
         sodipodi:cx="-5.5567422"
         sodipodi:cy="-31.513847"
         sodipodi:rx="1.5"
         sodipodi:ry="1.5"
         d="m -4.0567422,-31.513847 c 0,0.828427 -0.6715729,1.5 -1.5,1.5 -0.8284271,0 -1.5,-0.671573 -1.5,-1.5 0,-0.828427 0.6715729,-1.5 1.5,-1.5 0.8284271,0 1.5,0.671573 1.5,1.5 z"
         style="fill:#ffffff;fill-opacity:1" />
      <circle
         id="circle4649"
         r="1.5"
         cy="-31.513847"
         cx="5.5567422"
         sodipodi:cx="5.5567422"
         sodipodi:cy="-31.513847"
         sodipodi:rx="1.5"
         sodipodi:ry="1.5"
         d="m 7.0567422,-31.513847 c 0,0.828427 -0.6715729,1.5 -1.5,1.5 -0.8284271,0 -1.5,-0.671573 -1.5,-1.5 0,-0.828427 0.6715729,-1.5 1.5,-1.5 0.8284271,0 1.5,0.671573 1.5,1.5 z"
         style="fill:#ffffff;fill-opacity:1" />
      <circle
         id="circle4651"
         r="1.5"
         cy="-27.712812"
         cx="16"
         sodipodi:cx="16"
         sodipodi:cy="-27.712812"
         sodipodi:rx="1.5"
         sodipodi:ry="1.5"
         d="m 17.5,-27.712812 c 0,0.828427 -0.671573,1.5 -1.5,1.5 -0.828427,0 -1.5,-0.671573 -1.5,-1.5 0,-0.828428 0.671573,-1.5 1.5,-1.5 0.828427,0 1.5,0.671572 1.5,1.5 z"
         style="fill:#ffffff;fill-opacity:1" />
      <circle
         id="circle4653"
         r="1.5"
         cy="-20.569204"
         cx="24.513422"
         sodipodi:cx="24.513422"
         sodipodi:cy="-20.569204"
         sodipodi:rx="1.5"
         sodipodi:ry="1.5"
         d="m 26.013422,-20.569204 c 0,0.828427 -0.671573,1.5 -1.5,1.5 -0.828427,0 -1.5,-0.671573 -1.5,-1.5 0,-0.828427 0.671573,-1.5 1.5,-1.5 0.828427,0 1.5,0.671573 1.5,1.5 z"
         style="fill:#ffffff;fill-opacity:1" />
      <circle
         id="circle4655"
         r="1.5"
         cy="-10.944645"
         cx="30.070164"
         sodipodi:cx="30.070164"
         sodipodi:cy="-10.944645"
         sodipodi:rx="1.5"
         sodipodi:ry="1.5"
         d="m 31.570164,-10.944645 c 0,0.828427 -0.671573,1.5000001 -1.5,1.5000001 -0.828427,0 -1.5,-0.6715731 -1.5,-1.5000001 0,-0.828427 0.671573,-1.5 1.5,-1.5 0.828427,0 1.5,0.671573 1.5,1.5 z"
         style="fill:#ffffff;fill-opacity:1" />
    </g>
    <polygon
       transform="matrix(0.1875,0,0,0.1875,345.47742,187.71123)"
       points="40,-40 -40,-40 -40,40 40,40 "
       id="polygon6-5-1-3-3"
       style="fill:#000000"
       inkscape:export-filename="/home/kale/kxgames/seacow/armed-cat/images/normal-waypoint.png"
       inkscape:export-xdpi="90"
       inkscape:export-ydpi="90" />
    <path
       sodipodi:type="arc"
       style="color:#000000;fill:#ffffff;fill-opacity:1;fill-rule:nonzero;stroke:none;stroke-width:1;marker:none;visibility:visible;display:inline;overflow:visible;enable-background:new"
       id="path5555"
       sodipodi:cx="368.40262"
       sodipodi:cy="144.08354"
       sodipodi:rx="6.3639607"
       sodipodi:ry="11.667261"
       d="m 374.76658,144.08354 a 6.3639607,11.667261 0 1 1 -12.72792,0 6.3639607,11.667261 0 1 1 12.72792,0 z"
       transform="matrix(0.39283712,0,0,0.2142748,200.7552,156.83776)"
       inkscape:export-filename="/home/kale/kxgames/seacow/armed-cat/images/normal-waypoint.png"
       inkscape:export-xdpi="90"
       inkscape:export-ydpi="90" />
    <polygon
       transform="matrix(0.1875,0,0,0.1875,391.88771,189.37809)"
       points="40,40 40,-40 -40,-40 -40,40 "
       id="polygon6-5-1-3-3-0"
       style="fill:#000000"
       inkscape:export-filename="/home/kale/kxgames/seacow/armed-cat/images/battle-waypoint.png"
       inkscape:export-xdpi="90"
       inkscape:export-ydpi="90" />
    <rect
       style="color:#000000;fill:#ffffff;fill-opacity:1;fill-rule:nonzero;stroke:none;stroke-width:1;marker:none;visibility:visible;display:inline;overflow:visible;enable-background:new"
       id="rect5608"
       width="3"
       height="10"
       x="141.69592"
       y="406.01697"
       transform="matrix(0.70710678,-0.70710678,0.70710678,0.70710678,0,0)"
       inkscape:export-filename="/home/kale/kxgames/seacow/armed-cat/images/battle-waypoint.png"
       inkscape:export-xdpi="90"
       inkscape:export-ydpi="90" />
    <rect
       style="color:#000000;fill:#ffffff;fill-opacity:1;fill-rule:nonzero;stroke:none;stroke-width:1;marker:none;visibility:visible;display:inline;overflow:visible;enable-background:new"
       id="rect5608-3"
       width="3"
       height="10"
       x="-412.51697"
       y="138.19592"
       transform="matrix(-0.70710678,-0.70710678,0.70710678,-0.70710678,0,0)"
       inkscape:export-filename="/home/kale/kxgames/seacow/armed-cat/images/battle-waypoint.png"
       inkscape:export-xdpi="90"
       inkscape:export-ydpi="90" />
  </g>
</svg>
